<svg width="300" height="194.3714309962268" viewBox="0 0 300 194.3714309962268" class="css-1j8o68f">
<defs id="SvgjsDefs1011"></defs>
<g id="SvgjsG1012" featurekey="e7LhAk-0" transform="matrix(9.234605204399504,0,0,9.234605204399504,71.8136891279454,-16.44696193675046)" fill="#000000"><path xmlns="http://www.w3.org/2000/svg" style="" d="m 10.920587,1.7810141 c -0.0056,0 -0.01133,0.00108 -0.017,0.00333 -0.06896,0.035937 0.01684,0.2029231 0.0017,0.2258062 -0.01525,0.022876 -0.158869,-0.2059591 -0.238475,-0.1825867 -0.02297,0.00757 0.04591,0.1551776 0.02812,0.170439 -0.01781,0.01528 -0.127536,-0.038116 -0.158117,-0.020307 -0.03054,0.017801 -0.06613,0.2136125 0.05363,0.3230008 0.119765,0.1093712 0.361694,-0.010239 0.369343,0.00522 0.0077,0.015252 -0.320955,0.2188377 -0.514615,0.4986469 C 10.251514,3.0843761 9.7928861,3.7051043 9.5431667,3.8272043 9.2934482,3.9493016 8.7836809,4.1222228 8.6409855,4.2239694 8.49829,4.3257197 8.4780282,4.3105016 8.4627361,4.28506 8.4474883,4.2596363 8.4219306,4.005156 8.3251008,3.8372675 8.2282671,3.6693787 8.1415948,3.6693527 8.1314042,3.6439183 8.1211943,3.6184946 7.8562239,2.7282104 6.8369706,2.6620711 5.8177141,2.5959355 5.1029925,4.1655167 5.2471332,5.2879081 5.3912759,6.4102949 5.6724482,6.1298001 5.6796519,6.0722392 5.6868591,6.0146623 5.4850306,5.2376374 5.5715222,5.1369079 5.6926282,5.7160465 6.209127,5.9456455 5.9611712,5.4156505 5.8530625,5.1926119 5.7300666,4.88496 5.888622,4.24462 6.0471872,3.6042828 6.3499402,3.3956587 6.3787642,3.4172445 c 0.028885,0.021559 -0.1729706,0.6115992 0,0.8058537 0.1729806,0.1942646 0.2090619,0.2445721 0.2018539,0.3381008 -0.026399,0.2589452 0.032459,0.2226989 0.216086,0 0.00336,0.5196004 -0.076312,0.6228678 0.2667665,0.4533467 0.00268,0.7731652 0.332259,0.063262 0.6053882,0.4819847 0.079279,0.12951 0.1100165,0.4129067 0.1532563,0.4129067 0.043246,0 0.1277701,-0.1970375 0.2214665,-0.1610669 0.093689,0.035992 0.4252408,0.3598342 0.6991121,0.3886083 0.273881,0.028784 0.4540411,0.043099 0.4540411,0.086262 0,0.043181 -0.057599,0.151175 -0.028812,0.230318 0.017728,0.048622 0.036096,0.3754681 0.046863,0.6453079 C 7.462399,7.2563266 5.896073,7.7820098 4.718286,8.5425643 4.2119597,8.869519 3.7804762,9.2379813 3.4325303,9.6370532 A 5.2002321,5.2002321 0 0 0 4.1389321,11.121017 C 5.111443,10.071207 6.4144646,9.1368804 7.9566536,8.4535266 8.5965557,8.1699858 9.2405052,7.9473634 9.8774764,7.7813161 9.9104379,7.8161 9.9332199,7.8212624 9.9316285,7.7672525 11.146554,7.4565966 12.33413,7.355431 13.413825,7.4544929 12.463775,7.1940595 11.41622,7.0485286 10.315549,7.0485286 c -0.196435,0 -0.3903728,0.0064 -0.5831712,0.015451 C 9.6240284,6.7333573 9.6173428,6.7438709 9.6256364,6.7052246 9.636451,6.6548455 9.9463467,6.014583 10.429233,5.6692264 c 0.482888,-0.3453468 0.648541,-0.4676855 0.749446,-0.7123037 0.100908,-0.2446235 0.02892,-0.3597973 0.0505,-0.4389412 0.02163,-0.079136 0.17296,-0.5179372 0.165752,-0.7697517 -0.0072,-0.251829 -0.180192,-0.5898945 -0.136942,-0.6258687 0.04324,-0.035992 0.116308,-0.00478 0.163151,-0.098063 0.04684,-0.093529 0.01348,-0.1115409 0.01892,-0.1331236 0.0053,-0.021559 0.06218,-0.076424 0.05588,-0.1240974 -0.0063,-0.047666 -0.05861,-0.1258641 -0.04599,-0.1546443 0.01259,-0.028765 0.263647,-0.034361 0.263989,-0.03437 0,0 -0.01528,-0.091671 -0.160546,-0.1298253 0,0 0.03828,-0.1347199 -0.05346,-0.2695434 -0.09173,-0.1348128 -0.196345,-0.2417092 -0.214177,-0.2391695 -0.01784,0.00234 -0.01266,0.1144329 -0.02795,0.1169817 -0.01525,0.00234 -0.02996,-0.1810898 -0.102051,-0.1628022 -0.05951,0.037108 -0.03247,0.099403 -0.05554,0.1121218 -0.02154,0.011968 -0.09549,-0.2247671 -0.179637,-0.2247635 z M 2.6242702,4.056079 C 2.5379452,4.1491716 2.4540212,4.2449813 2.3724304,4.3433262 2.2085877,4.3805337 2.0660993,4.4882526 1.9822608,4.6401194 1.8857592,4.8159379 1.8819924,5.0236728 1.9690715,5.1960417 2.1555288,5.1510774 2.3120786,5.0322738 2.4010703,4.8707842 2.4793772,4.7280535 2.5016504,4.5585666 2.4626834,4.3947005 2.5132693,4.2808158 2.5670725,4.167923 2.6242702,4.056079 Z m 11.6847888,0 c 0.0572,0.1118437 0.11101,0.2247368 0.161588,0.3386215 -0.03897,0.1638661 -0.0167,0.333353 0.06161,0.4760837 0.08899,0.1614896 0.245542,0.2802923 0.431999,0.3252575 0.08709,-0.1723689 0.0833,-0.3801038 -0.01319,-0.5559223 C 14.867231,4.4882526 14.724742,4.380531 14.560899,4.3433262 14.479314,4.2449813 14.395385,4.1491716 14.309059,4.056079 Z M 1.4365783,4.5411882 C 1.3643165,4.6795936 1.2962097,4.8199262 1.2322947,4.9622525 1.1248201,5.1475953 1.1086352,5.3697583 1.1863034,5.5553174 1.2644932,5.7413187 1.4247827,5.8646494 1.6134418,5.9043523 1.6953072,5.7296637 1.7023613,5.5273261 1.6314959,5.3454798 1.5722343,5.1947569 1.4622424,5.0677614 1.3189089,4.9974852 1.3532515,4.8451453 1.392468,4.6929649 1.4365845,4.5411882 Z m 14.0601727,0 c 0.04411,0.1517767 0.08333,0.3039571 0.11767,0.456297 -0.143332,0.07028 -0.253321,0.1972717 -0.312586,0.3479946 -0.07087,0.1818463 -0.06382,0.3841839 0.01805,0.5588725 0.188659,-0.039702 0.348948,-0.1630336 0.427138,-0.3490349 0.07767,-0.1855591 0.06148,-0.4077221 -0.04599,-0.5930649 C 15.637119,4.8199262 15.569011,4.6795936 15.496751,4.5411882 Z M 2.7960985,5.2505403 C 2.7108006,5.3468229 2.6278621,5.446512 2.5475561,5.5494165 2.3996477,5.4878303 2.2366114,5.480443 2.0891751,5.5372631 1.912381,5.6060835 1.7812917,5.7597558 1.7413554,5.9475663 1.9151432,6.0294671 2.1179257,6.0274225 2.2877316,5.9572926 2.4580085,5.8866198 2.5820852,5.7540396 2.6315603,5.5903744 2.6830743,5.475492 2.7379335,5.3620473 2.7960985,5.2505375 Z m 11.3411335,0 c 0.05817,0.1115099 0.113028,0.2247801 0.164537,0.339663 0.04948,0.1636651 0.173551,0.2964193 0.343828,0.3670865 0.169806,0.070135 0.372589,0.07218 0.546378,-0.00973 C 15.152033,5.759759 15.020949,5.6060876 14.844154,5.5372663 14.696717,5.4804369 14.533683,5.4878246 14.385774,5.5494199 14.305474,5.4465156 14.222526,5.3468264 14.137232,5.2505437 Z M 0.8586135,5.7540468 C 0.80616307,5.916239 0.75885902,6.0801673 0.71681157,6.2454046 0.63612599,6.4652306 0.66061277,6.7074297 0.7791187,6.8915796 0.89831297,7.0761829 1.0934721,7.1763341 1.3024115,7.1817774 1.3555741,6.9794542 1.3245559,6.7620201 1.214591,6.5809016 1.1229966,6.4308538 0.98191718,6.3149961 0.81574294,6.2665786 0.82430423,6.0963565 0.83867137,5.9253805 0.85861671,5.7540468 Z m 15.2161035,0 c 0.01994,0.1713337 0.0343,0.3423097 0.04287,0.5125318 -0.166174,0.048415 -0.307254,0.1642752 -0.398849,0.314323 -0.109975,0.1811185 -0.140984,0.3985526 -0.08783,0.6008758 0.20894,-0.00541 0.4041,-0.1057688 0.523294,-0.2903716 0.118507,-0.1841492 0.142997,-0.4261752 0.0623,-0.6460012 -0.04204,-0.1652373 -0.08934,-0.3291656 -0.14179,-0.4913578 z M 2.4408148,6.2657109 C 2.3674358,6.3830723 2.2973533,6.5038218 2.2309762,6.6275903 2.0614956,6.5892567 1.885924,6.6111938 1.7392725,6.6994466 1.5635108,6.8058475 1.4531901,6.9947642 1.4473396,7.2027802 1.6485745,7.2561135 1.864223,7.2141771 2.0315522,7.1078408 2.1993733,7.0007662 2.3063596,6.8377667 2.3283455,6.6555356 2.3617152,6.5244859 2.3991925,6.3944273 2.4408148,6.2657128 Z m 12.0517012,0 c 0.04163,0.1287145 0.07909,0.2587732 0.112473,0.3898229 0.02199,0.182231 0.1288,0.3452306 0.29662,0.4523052 0.16733,0.1063384 0.383153,0.1482723 0.584388,0.094939 C 15.480135,6.9947625 15.369819,6.8058458 15.194057,6.6994449 15.047406,6.611201 14.871833,6.5892575 14.702353,6.6275885 14.635974,6.5038201 14.565892,6.3830705 14.492516,6.2657092 Z M 9.4525904,6.8131295 c 0.010154,0.00865 0.05225,0.1279191 0.097022,0.2598237 -0.04835,0.00297 -0.096315,0.00666 -0.1444044,0.010239 C 9.417631,6.9294712 9.438377,6.8009504 9.45259,6.8131279 Z M 0.48909718,7.0573323 c -0.026712,0.183523 -0.0470004,0.3681019 -0.0609193,0.5533196 -0.0154415,0.086721 -0.0171082,0.1744617 -0.005586,0.2594766 0.0219911,0.1602742 0.0898836,0.3078762 0.19525824,0.4207167 C 0.78049909,8.4645456 1.0074449,8.5314362 1.229661,8.4954766 1.2448949,8.2797001 1.1762727,8.064786 1.0376996,7.8958161 1.0317539,7.8885148 1.0255644,7.8813921 1.0193031,7.8742939 0.89371841,7.7320848 0.72250082,7.6349714 0.53714449,7.6146433 0.51459474,7.4306185 0.49853159,7.2447144 0.48906309,7.0573319 Z m 15.95513382,0 c -0.0095,0.1873824 -0.02553,0.3732866 -0.04806,0.5573115 -0.185356,0.020324 -0.356575,0.1174409 -0.482159,0.2596506 -0.0062,0.00712 -0.01246,0.014226 -0.01839,0.021522 -0.138572,0.1689698 -0.207193,0.3838839 -0.19196,0.5996604 0.222215,0.035955 0.448989,-0.030928 0.611636,-0.2046312 0.105386,-0.112841 0.173444,-0.2604427 0.195432,-0.4207169 0.01158,-0.085019 0.0098,-0.1727553 -0.0056,-0.2594766 C 16.4912,7.4254345 16.47093,7.2408555 16.44421,7.0573326 Z M 2.2622179,7.3154208 C 2.2056409,7.4516173 2.1534819,7.5907869 2.1063582,7.7328401 1.9193315,7.723822 1.737376,7.7792189 1.5985128,7.9001548 c -0.00685,0.00595 -0.013586,0.0123 -0.020135,0.018396 C 1.4256115,8.0640445 1.3532551,8.2768299 1.3871112,8.48888 1.6107219,8.5050514 1.831029,8.4176634 1.9872924,8.2736622 2.0896246,8.1790939 2.159973,8.0647976 2.1934849,7.944239 2.2112958,7.8795901 2.2187102,7.8124975 2.2148368,7.7442943 2.2255304,7.6009778 2.2414591,7.4579192 2.2622157,7.3154198 Z m 12.4088931,0 c 0.02076,0.1424992 0.03652,0.2855579 0.04721,0.4288743 -0.0038,0.068198 0.0037,0.1352967 0.02153,0.1999448 0.03352,0.1205584 0.103858,0.2348549 0.206192,0.3294232 0.156264,0.1440029 0.376571,0.2312153 0.600182,0.215044 0.03386,-0.2120503 -0.03867,-0.4246617 -0.191442,-0.5701547 -0.0065,-0.00614 -0.01313,-0.012423 -0.01996,-0.018397 C 15.195955,7.7792216 15.014002,7.7238202 14.826974,7.7328401 14.779848,7.5907869 14.727689,7.4516173 14.671113,7.3154208 Z M 12.548609,7.8756827 C 11.174702,7.8840611 9.6472421,8.20606 8.142536,8.8728027 6.6241233,9.5456142 5.3508718,10.471531 4.4194342,11.494646 a 5.2002321,5.2002321 0 0 0 1.2411491,1.085638 C 6.0774527,12.031426 6.5552583,11.499483 7.0926528,10.997908 8.7553865,9.4459944 10.667628,8.4722106 12.435619,8.154946 12.837793,8.0827833 13.23312,8.0465055 13.616889,8.0443857 a 5.2002321,5.2002321 0 0 0 -0.0038,-0.1079553 c -0.34188,-0.041965 -0.697255,-0.062983 -1.064446,-0.060749 z M 2.2646477,8.3649566 C 2.2299176,8.5171191 2.2010706,8.6722112 2.1782145,8.8297592 1.9791887,8.8557324 1.7977062,8.9481728 1.6743603,9.1020793 1.5269816,9.28726 1.4850057,9.5365772 1.5655369,9.7630078 1.8044396,9.7364218 2.0195629,9.6010936 2.156345,9.4197002 2.2935586,9.2372074 2.3432221,9.0222598 2.2948488,8.8210808 2.2790469,8.6692707 2.2688756,8.5171822 2.2646504,8.3649566 Z m 12.4040343,0 c -0.0042,0.1522256 -0.0144,0.3043141 -0.03021,0.4561242 -0.04838,0.201179 0.0011,0.4161266 0.138328,0.5986194 0.136784,0.1813934 0.35208,0.3167173 0.590983,0.3433076 C 15.448323,9.5365772 15.406343,9.28726 15.258954,9.1020793 15.135611,8.9481728 14.95413,8.8557306 14.755103,8.8297592 14.732253,8.6722112 14.703403,8.5171191 14.668673,8.3649566 Z M 0.34504028,8.4191108 c 0.005766,0.2007834 0.0190632,0.4011012 0.0397481,0.6005288 7.2883e-4,0.2756345 0.12671992,0.5319439 0.3311584,0.684012 C 0.92129505,9.8559784 1.1735429,9.8821945 1.4008267,9.8008506 1.3736012,9.5606472 1.2507849,9.3385549 1.0587339,9.1859123 0.89905078,9.0598366 0.69988438,8.9894199 0.50055498,9.0031506 0.4416176,8.8121149 0.38967035,8.617272 0.34504299,8.4191101 Z m 16.24324972,0 c -0.04463,0.1981619 -0.09658,0.3930047 -0.155511,0.5840404 -0.199331,-0.013729 -0.398671,0.056685 -0.558354,0.1827618 -0.192052,0.1526426 -0.314695,0.3747342 -0.34192,0.6149344 0.227283,0.081348 0.479533,0.05513 0.68488,-0.097199 0.204439,-0.1520681 0.330433,-0.4083777 0.331158,-0.6840123 0.02068,-0.1994276 0.03402,-0.3997453 0.03975,-0.6005289 z m -2.982682,0.082964 c -0.350383,0.00333 -0.714129,0.036911 -1.088761,0.1041377 C 10.853529,8.9046921 9.0099738,9.8359401 7.4057607,11.333236 6.9032058,11.802285 6.4550099,12.29873 6.06325,12.809564 a 5.2002321,5.2002321 0 0 0 1.4955934,0.493613 C 8.7038072,11.423299 10.219262,10.004498 11.781287,9.2216676 12.385282,8.9189589 12.999029,8.7117294 13.600228,8.6117665 a 5.2002321,5.2002321 0 0 0 0.0055,-0.1096913 z m -0.06873,0.5871638 C 13.030745,9.1883094 12.509977,9.3691538 11.986964,9.6312762 10.565795,10.343522 9.1507287,11.638551 8.0599262,13.363057 a 5.2002321,5.2002321 0 0 0 0.3617055,0.0177 5.2002321,5.2002321 0 0 0 1.7404903,-0.305644 c 0.293736,-0.711719 0.651886,-1.357205 1.062549,-1.916134 0.646248,-0.879542 1.428118,-1.5483718 2.286519,-1.9182202 a 5.2002321,5.2002321 0 0 0 0.02569,-0.15152 z M 2.4467157,9.3893295 c -0.00904,0.1653055 -0.011342,0.3327006 -0.00657,0.5014231 -0.2044817,0.064033 -0.3783119,0.1944394 -0.4793811,0.3788884 -0.1205397,0.221737 -0.1177973,0.491456 0.01041,0.713518 0.2454665,-0.07396 0.4455672,-0.25763 0.5550536,-0.472787 C 2.6360495,10.293839 2.6485756,10.06101 2.5611084,9.8602056 2.5168377,9.7048359 2.4786572,9.5476129 2.4467311,9.3893295 Z m 12.0398973,0 c -0.03191,0.1582834 -0.0701,0.3155064 -0.114383,0.4708761 -0.08745,0.2008044 -0.07493,0.4336334 0.03489,0.6501664 0.109483,0.215157 0.309589,0.39882 0.555055,0.472787 0.128211,-0.222062 0.130953,-0.491954 0.01047,-0.713692 -0.101068,-0.184447 -0.274901,-0.314679 -0.479382,-0.3787144 0.0048,-0.1687225 0.0025,-0.3361176 -0.0065,-0.5014231 z m -14.04923778,0.40492 c 0.0424508,0.2111095 0.0932467,0.4203895 0.15221468,0.6274295 0.0522164,0.291485 0.23373775,0.539109 0.4779928,0.661102 0.245337,0.122127 0.5151066,0.101122 0.7379911,-0.02812 C 1.7306183,10.807751 1.5599089,10.597351 1.3294901,10.47236 1.1380597,10.369304 0.91531583,10.331767 0.70830704,10.382975 0.61077208,10.191939 0.52032632,9.9955552 0.43737522,9.7942495 Z m 16.05857978,0 c -0.08295,0.2013067 -0.173398,0.3976895 -0.270933,0.5887265 -0.207009,-0.05121 -0.429751,-0.01368 -0.621183,0.08939 -0.230418,0.124991 -0.401302,0.33539 -0.476255,0.582304 0.222882,0.129246 0.492826,0.150243 0.738163,0.02812 0.244255,-0.121991 0.425777,-0.369616 0.477992,-0.661102 0.05898,-0.207039 0.109767,-0.41632 0.152216,-0.6274292 z m -3.146699,0.03385 c -0.640616,0.3515735 -1.236509,0.8972545 -1.755071,1.6030295 -0.302221,0.411332 -0.575937,0.876466 -0.815399,1.38486 a 5.2002321,5.2002321 0 0 0 2.57047,-2.9878927 z m 0.787976,0.5321445 -1.77e-4,1.77e-4 c -0.06092,0.158489 -0.128439,0.314261 -0.202375,0.466712 -0.125324,0.188554 -0.155162,0.427015 -0.08522,0.669086 0.0014,0.0035 0.0021,0.0067 0.0032,0.01026 0.07405,0.244284 0.246719,0.47552 0.488581,0.60105 0.05758,-0.06703 0.102661,-0.142577 0.13399,-0.223028 0.06472,-0.165888 0.06994,-0.348813 0.01286,-0.519301 -0.07159,-0.211422 -0.229864,-0.37911 -0.432173,-0.483721 0.03513,-0.173992 0.06219,-0.348018 0.0814,-0.52121 z m -11.3411335,1.77e-4 c 0.019208,0.173136 0.04628,0.347101 0.081397,0.521036 -0.2023078,0.104606 -0.3605856,0.2723 -0.4321717,0.483721 -0.057108,0.17049 -0.051874,0.353414 0.012847,0.519302 0.031324,0.08045 0.076415,0.155998 0.1339912,0.223027 0.2418613,-0.125529 0.4145354,-0.356765 0.4885793,-0.601048 0.00108,-0.0034 0.00171,-0.0066 0.00315,-0.01026 0.069946,-0.242033 0.040108,-0.480493 -0.085218,-0.669048 -0.073937,-0.152473 -0.141632,-0.308246 -0.2025478,-0.466734 z m -2.03363978,0.782246 c 0.0828745,0.215385 0.17491936,0.42746 0.27579228,0.635416 0.1081936,0.294198 0.3414683,0.520095 0.6164965,0.605213 0.00387,0.0013 0.00775,0.0025 0.011802,0.0035 0.2813823,0.08202 0.5592738,0.0067 0.7666284,-0.172001 C 2.3912318,12.134532 2.3397529,12.060901 2.280269,11.994994 2.1585882,11.860153 2.0009258,11.75511 1.822583,11.695598 1.6028183,11.62304 1.3626759,11.623914 1.1554059,11.715554 1.0172354,11.531714 0.88627864,11.340372 0.76245872,11.142622 Z m 15.40841228,0 c -0.12382,0.197748 -0.254776,0.388917 -0.392946,0.572757 -0.207272,-0.09165 -0.447588,-0.09235 -0.667352,-0.01978 -0.178343,0.05952 -0.335832,0.164554 -0.457512,0.299396 -0.05948,0.06589 -0.110959,0.139362 -0.15291,0.21973 0.207356,0.178768 0.485246,0.254028 0.766629,0.172003 0.0041,-0.0013 0.0079,-0.0022 0.01182,-0.0035 0.275028,-0.08508 0.508302,-0.311146 0.616497,-0.605345 0.100876,-0.207956 0.192919,-0.419856 0.275791,-0.635241 z M 3.0710222,12.378955 a 0.21833418,0.21833418 0 0 0 -0.1440577,0.374549 c 1.3855086,1.476149 3.3566555,2.398815 5.539961,2.398815 2.1852725,0 4.1573785,-0.924331 5.5430845,-2.402806 a 0.21833418,0.21833418 0 0 0 -0.148917,-0.370037 0.21833418,0.21833418 0 0 0 -0.169918,0.07151 c -1.30653,1.393992 -3.161969,2.264473 -5.2242495,2.264473 -2.0604238,0 -3.9154767,-0.868682 -5.22182,-2.260486 a 0.21833418,0.21833418 0 0 0 -0.1740833,-0.07602 z" fill="#000000" fill-opacity="1" stroke="none"></path></g>
<g id="SvgjsG1013" featurekey="Qg0WB5-0" transform="matrix(2.8571430647454443,0,0,2.8571430647454443,-0.542857941835163,136.57142810432276)" fill="#000000"><path d="M5.71 19.79 q-0.1 -0.17 -0.19 -0.35 t-0.16 -0.36 q-1.29 -3.4 -2.57 -6.74 t-2.57 -6.74 q0 -0.05 -0.015 -0.09 t-0.015 -0.08 q0 -0.28 0.37 -0.28 l3.22 0 q0.38 0 0.52 0.38 l3.06 9.11 l2.83 -9.11 q0.14 -0.38 0.55 -0.38 l3.25 0 q0.23 0 0.325 0.085 t0.095 0.225 q0 0.08 -0.01 0.11 l0 0.03 l-1.78 5.1 l1.34 3.93 l3.24 -9.1 q0.14 -0.38 0.55 -0.38 l3.15 0 q0.23 0 0.325 0.085 t0.095 0.225 q0 0.08 -0.01 0.11 l0 0.03 q-0.68 1.76 -1.39 3.51 t-1.425 3.5 t-1.42 3.505 t-1.375 3.505 q-0.04 0.11 -0.18 0.245 t-0.34 0.135 l-0.03 0 l-2.42 0 q-0.22 0 -0.335 -0.085 t-0.165 -0.225 l-1.58 -4.16 q-0.34 0.91 -0.67 1.785 t-0.66 1.785 q-0.05 0.14 -0.115 0.295 t-0.155 0.29 t-0.205 0.225 t-0.265 0.09 l-0.03 0 l-2.42 0 q-0.32 0 -0.42 -0.21 z M22.75 8.08 q0 -0.32 0.18 -0.55 t0.56 -0.23 l2.29 0 q0.12 0 0.26 0.055 t0.26 0.16 t0.205 0.245 t0.085 0.32 l0 11.15 q0 0.38 -0.21 0.575 t-0.6 0.195 l-2.29 0 q-0.74 0 -0.74 -0.77 l0 -11.15 z M22.75 3.0199999999999996 q0 -0.42 0.18 -0.595 t0.56 -0.175 l2.32 0 q0.35 0 0.565 0.175 t0.215 0.595 l0 1.95 q0 0.12 -0.055 0.26 t-0.155 0.27 t-0.245 0.215 t-0.325 0.085 l-2.32 0 q-0.74 0 -0.74 -0.83 l0 -1.95 z M28.99 4.289999999999999 q0 -0.32 0.16 -0.54 t0.55 -0.22 l2.45 0 q0.1 0 0.21 0.055 t0.205 0.155 t0.16 0.24 t0.065 0.31 l0 14.94 q0 0.38 -0.215 0.575 t-0.555 0.195 l-2.32 0 q-0.39 0 -0.55 -0.195 t-0.16 -0.575 l0 -14.94 z M44.14 18.45 q-0.27 0.27 -0.595 0.58 t-0.715 0.58 t-0.84 0.445 t-0.97 0.175 q-1.36 0 -2.505 -0.51 t-1.97 -1.395 t-1.29 -2.085 t-0.465 -2.58 q0 -1.39 0.465 -2.585 t1.29 -2.08 t1.97 -1.39 t2.505 -0.505 q0.55 0 1.005 0.16 t0.83 0.41 t0.69 0.565 t0.595 0.615 l0 -4.57 q0 -0.32 0.195 -0.54 t0.585 -0.22 l2.25 0 q0.13 0 0.275 0.055 t0.265 0.155 t0.195 0.24 t0.075 0.31 l0 14.95 q0 0.77 -0.81 0.77 l-1.96 0 q-0.2 0 -0.31 -0.05 t-0.185 -0.145 t-0.135 -0.24 t-0.15 -0.335 z M38.39 13.66 q0 0.66 0.205 1.235 t0.585 0.995 t0.915 0.665 t1.185 0.245 q0.64 0 1.205 -0.23 t0.985 -0.635 t0.675 -0.955 t0.285 -1.18 l0 -0.14 q0 -0.64 -0.24 -1.22 t-0.665 -1.02 t-1 -0.695 t-1.245 -0.255 q-0.65 0 -1.185 0.255 t-0.915 0.695 t-0.585 1.02 t-0.205 1.22 z M51.85000000000001 7.48 q0 -0.93 0.4 -1.75 t1.07 -1.435 t1.54 -0.97 t1.82 -0.355 l0.2 0 q0.34 0 0.525 0.205 t0.185 0.565 l0 1.91 q0 0.37 -0.195 0.615 t-0.515 0.245 l-0.2 0 q-0.21 0 -0.4 0.075 t-0.34 0.205 t-0.24 0.305 t-0.09 0.385 l0 1.15 l1.57 0 q0.34 0 0.525 0.185 t0.185 0.585 l0 1.83 q0 0.43 -0.185 0.63 t-0.525 0.2 l-1.57 0 l0 7.17 q0 0.38 -0.255 0.575 t-0.555 0.195 l-2.16 0 q-0.36 0 -0.575 -0.225 t-0.215 -0.545 l0 -7.17 l-1.03 0 q-0.35 0 -0.565 -0.2 t-0.215 -0.63 l0 -1.83 q0 -0.4 0.215 -0.585 t0.565 -0.185 l1.03 0 l0 -1.15 z M72.38000000000001 19.26 q0 0.17 -0.06 0.325 t-0.2 0.245 q-0.11 0.11 -0.26 0.14 t-0.26 0.03 l-1.97 0 q-0.21 0 -0.34 -0.055 t-0.21 -0.155 t-0.135 -0.245 t-0.115 -0.315 l-0.29 -0.75 q-0.27 0.27 -0.59 0.575 t-0.705 0.565 t-0.835 0.435 t-0.96 0.175 q-0.91 0 -1.745 -0.23 t-1.56 -0.655 t-1.315 -1.02 t-1.015 -1.325 t-0.655 -1.575 t-0.23 -1.765 q0 -1.39 0.51 -2.585 t1.39 -2.08 t2.07 -1.39 t2.55 -0.505 q0.62 0 1.14 0.185 t0.945 0.485 t0.77 0.68 t0.615 0.77 l0.39 -1.21 q0.1 -0.25 0.165 -0.405 t0.14 -0.23 t0.185 -0.1 t0.31 -0.025 l1.49 0 q0.11 0 0.26 0.03 t0.26 0.14 q0.14 0.11 0.2 0.25 t0.06 0.32 l0 11.27 z M62.53000000000001 13.66 q0 0.66 0.205 1.235 t0.585 0.995 t0.915 0.665 t1.185 0.245 q0.67 0 1.245 -0.245 t1 -0.665 t0.665 -0.995 t0.24 -1.235 q0 -0.64 -0.24 -1.22 t-0.665 -1.02 t-1 -0.695 t-1.245 -0.255 q-0.65 0 -1.185 0.255 t-0.915 0.695 t-0.585 1.02 t-0.205 1.22 z M74.78000000000002 8.04 q0 -0.17 0.075 -0.325 t0.185 -0.245 q0.26 -0.17 0.54 -0.17 l1.51 0 q0.19 0 0.3 0.07 t0.185 0.18 t0.13 0.25 t0.135 0.28 q0.02 0.04 0.08 0.195 t0.13 0.34 t0.135 0.35 t0.085 0.215 q0.3 -0.33 0.575 -0.695 t0.585 -0.675 t0.69 -0.51 t0.9 -0.2 q0.54 0 0.965 0.08 t0.805 0.235 t0.755 0.395 t0.815 0.56 q0.69 0.37 0.26 1.1 l-0.91 1.55 q-0.2 0.3 -0.49 0.37 t-0.63 -0.09 q-0.43 -0.42 -0.875 -0.625 t-1.015 -0.205 q-0.39 0 -0.685 0.11 t-0.535 0.31 t-0.45 0.48 t-0.42 0.62 l0 7.24 q0 0.38 -0.185 0.575 t-0.615 0.195 l-2.25 0 q-0.78 0 -0.78 -0.77 l0 -11.19 z M86.55000000000001 7.470000000000001 q0.13 -0.11 0.275 -0.14 t0.275 -0.03 l1.51 0 q0.18 0 0.31 0.065 t0.22 0.175 t0.145 0.25 t0.105 0.29 l0.31 1.28 q0.15 -0.31 0.365 -0.705 t0.57 -0.74 t0.89 -0.58 t1.335 -0.235 q1.28 0 2.24 0.545 t1.58 1.465 q0.19 -0.31 0.52 -0.665 t0.79 -0.655 t1.055 -0.495 t1.315 -0.195 q1.14 0 2.035 0.44 t1.52 1.2 t0.95 1.775 t0.325 2.165 l0 6.55 q0 0.38 -0.165 0.575 t-0.525 0.195 l-2.31 0 q-0.43 0 -0.59 -0.145 t-0.16 -0.565 l0 -6.61 q0 -0.43 -0.135 -0.8 t-0.375 -0.645 t-0.585 -0.43 t-0.765 -0.155 q-0.38 0 -0.72 0.15 t-0.6 0.415 t-0.415 0.64 t-0.155 0.825 l0 6.55 q0 0.38 -0.165 0.575 t-0.525 0.195 l-0.21 0 l-0.08 0 l-2.02 0 q-0.43 0 -0.59 -0.145 t-0.16 -0.565 l0 -6.61 q0 -0.43 -0.125 -0.8 t-0.36 -0.645 t-0.57 -0.43 t-0.755 -0.155 q-0.36 0 -0.705 0.145 t-0.62 0.41 t-0.46 0.635 t-0.215 0.82 l0 6.6 q0 0.17 -0.065 0.34 t-0.195 0.26 q-0.13 0.08 -0.245 0.11 t-0.265 0.03 l-2.26 0 q-0.43 0 -0.62 -0.21 t-0.19 -0.56 l0 -11.19 q0 -0.19 0.085 -0.35 t0.235 -0.25 z"></path></g></svg>